<svg xmlns="http://www.w3.org/2000/svg" enable-background="new 0 0 24 24" viewBox="0 0 24 24"><path fill="#3b65f5" d="M19.9 16.7l-1.5-2.9c-.2-.4-.3-.8-.3-1.2V9.2c0-2.5-2.3-4.6-5.2-4.8 0 0 0 0 0 0V2.9C12.9 2.4 12.5 2 12 2c-.5 0-.9.4-.9.9v1.4c0 0 0 0 0 0C8.2 4.5 5.9 6.6 5.9 9.2v3.5c0 .4-.1.8-.3 1.2l-1.5 2.7c-.2.3-.1.6 0 .9C4.3 17.8 4.6 18 4.9 18h14.1c.3 0 .6-.2.8-.4C20 17.3 20 16.9 19.9 16.7zM6.5 16.2l.8-1.4c.3-.6.5-1.3.5-2V9.2c0-1.7 1.7-3 3.8-3h.9c2.1 0 3.8 1.4 3.8 3v3.5c0 .7.2 1.4.5 2l.8 1.6H6.5zM14.9 18.8H14c-.2 0-.4.1-.4.3-.2.7-.8 1.3-1.6 1.3-.8 0-1.5-.5-1.6-1.3 0-.2-.2-.3-.4-.3H9.1c-.3 0-.5.2-.4.5C8.9 20.8 10.3 22 12 22s3.1-1.2 3.3-2.7C15.3 19 15.1 18.8 14.9 18.8z"/></svg>